<svg width="1500" height="470" viewBox="0 0 1500 470" fill="none" xmlns="http://www.w3.org/2000/svg">
  <defs>
    <linearGradient id="bg" x1="0" y1="0" x2="1500" y2="470"><stop stop-color="#071426"/><stop offset="1" stop-color="#102b4a"/></linearGradient>
    <radialGradient id="glow" cx="0" cy="0" r="1" gradientTransform="translate(980 210) scale(620 280)" gradientUnits="userSpaceOnUse"><stop stop-color="#8c6cff" stop-opacity="0.24"/><stop offset="1" stop-color="#8c6cff" stop-opacity="0"/></radialGradient>
    <filter id="shadow"><feDropShadow dx="0" dy="7" stdDeviation="7" flood-color="#000" flood-opacity="0.35"/></filter>
    <marker id="arrow" markerWidth="12" markerHeight="12" refX="10" refY="6" orient="auto" markerUnits="strokeWidth"><path d="M2 2 L10 6 L2 10 Z" fill="#78dcff"/></marker>
    <style>
      .title{font:700 34px DejaVu Sans,Arial,sans-serif;fill:#ecfbff}.sub{font:400 18px DejaVu Sans,Arial,sans-serif;fill:#b6e3f6}.card{fill:#0f2948;stroke:#62d2ff;stroke-width:2;filter:url(#shadow)}.nbox{fill:#1f749c;fill-opacity:.55;stroke:#78e0ff;stroke-opacity:.7}.num{font:700 12px DejaVu Sans,Arial,sans-serif;fill:#f0fcff;text-anchor:middle}.bt{font:700 21px DejaVu Sans,Arial,sans-serif;fill:#f0fbff;text-anchor:middle}.desc{font:400 14px DejaVu Sans,Arial,sans-serif;fill:#b9d9ea;text-anchor:middle}.line{stroke:#78dcff;stroke-width:3;stroke-linecap:round;marker-end:url(#arrow)}.fb{stroke:#b093ff;stroke-width:3;stroke-linecap:round;stroke-linejoin:round;marker-end:url(#arrow)}.icon{stroke:#7ee4ff;stroke-width:3;stroke-linecap:round;stroke-linejoin:round;fill:none}.icon2{stroke:#a987ff;stroke-width:3;stroke-linecap:round;stroke-linejoin:round;fill:none}.muted{stroke:#7ee4ff;stroke-opacity:.35;stroke-width:1}.foot{font:400 17px DejaVu Sans,Arial,sans-serif;fill:#bddff0}.strong{font:700 17px DejaVu Sans,Arial,sans-serif;fill:#effbff}
    </style>
  </defs>
  <rect width="1500" height="470" fill="url(#bg)"/><rect width="1500" height="470" fill="url(#glow)"/>
  <g opacity=".18"><path d="M0 80H1500M0 130H1500M0 180H1500M0 230H1500M0 280H1500M0 330H1500M0 380H1500M0 430H1500" stroke="#70cfff"/><path d="M50 0V470M100 0V470M150 0V470M200 0V470M250 0V470M300 0V470M350 0V470M400 0V470M450 0V470M500 0V470M550 0V470M600 0V470M650 0V470M700 0V470M750 0V470M800 0V470M850 0V470M900 0V470M950 0V470M1000 0V470M1050 0V470M1100 0V470M1150 0V470M1200 0V470M1250 0V470M1300 0V470M1350 0V470M1400 0V470M1450 0V470" stroke="#70cfff"/></g>
  <rect x="18" y="18" width="1464" height="434" rx="24" stroke="#5ccfff" stroke-opacity=".25" stroke-width="2"/>
  <text x="54" y="65" class="title">Block 3: DSP Basics</text><text x="56" y="100" class="sub">transform IQ data: window, filter, shift, resample and measure quality</text>
  <g transform="translate(56 165)">
    <g><rect class="card" width="190" height="135" rx="18"/><rect class="nbox" x="12" y="12" width="34" height="26" rx="13"/><text class="num" x="29" y="30">01</text><path class="muted" d="M52 64H158M105 28V92"/><circle cx="80" cy="46" r="5" fill="#7ee4ff"/><circle cx="130" cy="46" r="5" fill="#7ee4ff"/><circle cx="80" cy="82" r="5" fill="#a987ff"/><circle cx="130" cy="82" r="5" fill="#a987ff"/><text class="bt" x="95" y="101">IQ Input</text><text class="desc" x="95" y="122">recorded or synthetic</text></g>
    <g transform="translate(215 0)"><rect class="card" width="190" height="135" rx="18"/><rect class="nbox" x="12" y="12" width="34" height="26" rx="13"/><text class="num" x="29" y="30">02</text><path class="icon" d="M55 82H155M55 82V35"/><path class="icon2" d="M65 78 L78 58 L92 72 L110 40 L126 65 L145 47"/><text class="bt" x="95" y="101">FFT Window</text><text class="desc" x="95" y="122">leakage, resolution</text></g>
    <g transform="translate(430 0)"><rect class="card" width="190" height="135" rx="18"/><rect class="nbox" x="12" y="12" width="34" height="26" rx="13"/><text class="num" x="29" y="30">03</text><path class="icon" d="M52 74 C70 74 74 42 95 42 S120 74 138 74"/><path class="muted" d="M48 74H150"/><text class="bt" x="95" y="101">FIR Filter</text><text class="desc" x="95" y="122">response, delay</text></g>
    <g transform="translate(645 0)"><rect class="card" width="190" height="135" rx="18"/><rect class="nbox" x="12" y="12" width="34" height="26" rx="13"/><text class="num" x="29" y="30">04</text><path class="icon" d="M48 62 C60 40 72 84 84 62 S108 40 120 62 S144 84 156 62"/><path class="icon2" d="M78 38L130 86"/><text class="bt" x="95" y="101">Digital Mix</text><text class="desc" x="95" y="122">NCO, complex multiply</text></g>
    <g transform="translate(860 0)"><rect class="card" width="190" height="135" rx="18"/><rect class="nbox" x="12" y="12" width="34" height="26" rx="13"/><text class="num" x="29" y="30">05</text><path class="icon" d="M52 54H148M52 74H148"/><path class="icon2" d="M72 34V94M102 34V94M132 34V94"/><text class="bt" x="95" y="101">Multirate</text><text class="desc" x="95" y="122">decimation, interpolation</text></g>
    <g transform="translate(1075 0)"><rect class="card" width="190" height="135" rx="18"/><rect class="nbox" x="12" y="12" width="34" height="26" rx="13"/><text class="num" x="29" y="30">06</text><rect x="58" y="38" width="78" height="50" rx="8" fill="#143c5f" stroke="#7ee4ff" stroke-width="3"/><path class="icon2" d="M68 66 C76 48 87 84 97 66 S118 49 128 66"/><text class="bt" x="95" y="101">Metrics</text><text class="desc" x="95" y="122">SNR, spur, report</text></g>
    <g transform="translate(1290 0)"><rect class="card" width="190" height="135" rx="18"/><rect class="nbox" x="12" y="12" width="34" height="26" rx="13"/><text class="num" x="29" y="30">07</text><rect x="62" y="36" width="68" height="54" rx="6" fill="#143c5f" stroke="#7ee4ff" stroke-width="3"/><text x="76" y="68" style="font:700 15px DejaVu Sans,Arial;fill:#effbff">RTL</text><text class="bt" x="95" y="101">FPGA Ready</text><text class="desc" x="95" y="122">fixed-point path</text></g>
    <path class="line" d="M194 67H207"/><path class="line" d="M409 67H422"/><path class="line" d="M624 67H637"/><path class="line" d="M839 67H852"/><path class="line" d="M1054 67H1067"/><path class="line" d="M1269 67H1282"/>
    <path class="fb" d="M1385 150V195H525V150"/><text x="550" y="209" style="font:400 15px DejaVu Sans,Arial;fill:#c9c5ff">feedback: metrics drive filter order, mixer settings, rate changes and FPGA word length</text>
  </g>
  <text x="58" y="418" class="strong">Block output:</text><text x="180" y="418" class="foot">reproducible DSP chain with plots, metrics and hardware-oriented interpretation</text>
</svg>
