<svg width="1500" height="470" viewBox="0 0 1500 470" fill="none" xmlns="http://www.w3.org/2000/svg">
  <defs>
    <linearGradient id="bg" x1="0" y1="0" x2="1500" y2="470"><stop stop-color="#071426"/><stop offset="1" stop-color="#102b4a"/></linearGradient>
    <radialGradient id="glow" cx="0" cy="0" r="1" gradientTransform="translate(260 150) scale(580 260)" gradientUnits="userSpaceOnUse"><stop stop-color="#1db8ff" stop-opacity="0.25"/><stop offset="1" stop-color="#1db8ff" stop-opacity="0"/></radialGradient>
    <filter id="shadow"><feDropShadow dx="0" dy="7" stdDeviation="7" flood-color="#000" flood-opacity="0.35"/></filter>
    <marker id="arrow" markerWidth="12" markerHeight="12" refX="10" refY="6" orient="auto" markerUnits="strokeWidth"><path d="M2 2 L10 6 L2 10 Z" fill="#78dcff"/></marker>
    <style>
      .title{font:700 34px DejaVu Sans,Arial,sans-serif;fill:#ecfbff}.sub{font:400 18px DejaVu Sans,Arial,sans-serif;fill:#b6e3f6}.card{fill:#0f2948;stroke:#62d2ff;stroke-width:2;filter:url(#shadow)}.nbox{fill:#1f749c;fill-opacity:.55;stroke:#78e0ff;stroke-opacity:.7}.num{font:700 12px DejaVu Sans,Arial,sans-serif;fill:#f0fcff;text-anchor:middle}.bt{font:700 21px DejaVu Sans,Arial,sans-serif;fill:#f0fbff;text-anchor:middle}.desc{font:400 14px DejaVu Sans,Arial,sans-serif;fill:#b9d9ea;text-anchor:middle}.line{stroke:#78dcff;stroke-width:3;stroke-linecap:round;marker-end:url(#arrow)}.fb{stroke:#b093ff;stroke-width:3;stroke-linecap:round;stroke-linejoin:round;marker-end:url(#arrow)}.icon{stroke:#7ee4ff;stroke-width:3;stroke-linecap:round;stroke-linejoin:round;fill:none}.icon2{stroke:#a987ff;stroke-width:3;stroke-linecap:round;stroke-linejoin:round;fill:none}.muted{stroke:#7ee4ff;stroke-opacity:.35;stroke-width:1}.foot{font:400 17px DejaVu Sans,Arial,sans-serif;fill:#bddff0}.strong{font:700 17px DejaVu Sans,Arial,sans-serif;fill:#effbff}
    </style>
  </defs>
  <rect width="1500" height="470" fill="url(#bg)"/><rect width="1500" height="470" fill="url(#glow)"/>
  <g opacity=".18"><path d="M0 80H1500M0 130H1500M0 180H1500M0 230H1500M0 280H1500M0 330H1500M0 380H1500M0 430H1500" stroke="#70cfff"/><path d="M50 0V470M100 0V470M150 0V470M200 0V470M250 0V470M300 0V470M350 0V470M400 0V470M450 0V470M500 0V470M550 0V470M600 0V470M650 0V470M700 0V470M750 0V470M800 0V470M850 0V470M900 0V470M950 0V470M1000 0V470M1050 0V470M1100 0V470M1150 0V470M1200 0V470M1250 0V470M1300 0V470M1350 0V470M1400 0V470M1450 0V470" stroke="#70cfff"/></g>
  <rect x="18" y="18" width="1464" height="434" rx="24" stroke="#5ccfff" stroke-opacity=".25" stroke-width="2"/>
  <text x="54" y="65" class="title">Block 2: Signals, Spectrum, Sampling and I/Q</text><text x="56" y="100" class="sub">turn a captured waveform into correctly interpreted engineering data</text>
  <g transform="translate(56 165)">
    <g><rect class="card" width="190" height="135" rx="18"/><rect class="nbox" x="12" y="12" width="34" height="26" rx="13"/><text class="num" x="29" y="30">01</text><path class="icon" d="M55 64 C67 38 78 90 90 64 S113 38 125 64 S148 90 160 64"/><path class="muted" d="M52 64H163"/><text class="bt" x="95" y="101">Signal</text><text class="desc" x="95" y="122">tone, level, phase</text></g>
    <g transform="translate(215 0)"><rect class="card" width="190" height="135" rx="18"/><rect class="nbox" x="12" y="12" width="34" height="26" rx="13"/><text class="num" x="29" y="30">02</text><path class="icon" d="M58 80V45M78 80V32M98 80V50M118 80V28M138 80V58"/><path class="muted" d="M50 80H150"/><text class="bt" x="95" y="101">Sampling</text><text class="desc" x="95" y="122">Fs, Nyquist, aliasing</text></g>
    <g transform="translate(430 0)"><rect class="card" width="190" height="135" rx="18"/><rect class="nbox" x="12" y="12" width="34" height="26" rx="13"/><text class="num" x="29" y="30">03</text><path class="icon" d="M55 82H155M55 82V35"/><path class="icon2" d="M65 78 L78 58 L92 72 L110 40 L126 65 L145 47"/><text class="bt" x="95" y="101">FFT</text><text class="desc" x="95" y="122">bins, window, leakage</text></g>
    <g transform="translate(645 0)"><rect class="card" width="190" height="135" rx="18"/><rect class="nbox" x="12" y="12" width="34" height="26" rx="13"/><text class="num" x="29" y="30">04</text><path class="muted" d="M52 64H158M105 28V92"/><circle cx="80" cy="46" r="5" fill="#7ee4ff"/><circle cx="130" cy="46" r="5" fill="#7ee4ff"/><circle cx="80" cy="82" r="5" fill="#a987ff"/><circle cx="130" cy="82" r="5" fill="#a987ff"/><text class="bt" x="95" y="101">I/Q</text><text class="desc" x="95" y="122">complex baseband</text></g>
    <g transform="translate(860 0)"><rect class="card" width="190" height="135" rx="18"/><rect class="nbox" x="12" y="12" width="34" height="26" rx="13"/><text class="num" x="29" y="30">05</text><text x="60" y="48" style="font:400 14px DejaVu Sans,Arial;fill:#7ee4ff">Fs = 2.4 MS/s</text><text x="60" y="68" style="font:400 14px DejaVu Sans,Arial;fill:#7ee4ff">Fc = 915 MHz</text><text x="60" y="88" style="font:400 14px DejaVu Sans,Arial;fill:#7ee4ff">IQ = CI16</text><text class="bt" x="95" y="101">Metadata</text><text class="desc" x="95" y="122">format, gain, duration</text></g>
    <g transform="translate(1075 0)"><rect class="card" width="190" height="135" rx="18"/><rect class="nbox" x="12" y="12" width="34" height="26" rx="13"/><text class="num" x="29" y="30">06</text><rect x="56" y="39" width="80" height="48" rx="8" fill="#143c5f" stroke="#7ee4ff" stroke-width="3"/><path class="icon2" d="M66 64 C75 46 86 82 96 64 S118 47 128 64"/><text class="bt" x="95" y="101">Validation</text><text class="desc" x="95" y="122">axis and error checks</text></g>
    <path class="line" d="M194 67H207"/><path class="line" d="M409 67H422"/><path class="line" d="M624 67H637"/><path class="line" d="M839 67H852"/><path class="line" d="M1054 67H1067"/>
    <path class="fb" d="M1170 150V195H310V150"/><text x="335" y="209" style="font:400 15px DejaVu Sans,Arial;fill:#c9c5ff">feedback: wrong metadata immediately changes the engineering conclusion</text>
  </g>
  <text x="58" y="418" class="strong">Block output:</text><text x="180" y="418" class="foot">time plot, FFT with correct axis, IQ metadata table and interpretation-error report</text>
</svg>
